PathFileType	4	(X/Y/Z)	/Users/itak/Documents/Research/Walk-IL/dataset/trc/00368_00011.trc
DataRate	CameraRate	NumFrames	NumMarkers	Units	OrigDataRate	OrigDataStartFrame	OrigNumFrames
100.000000	100.000000	4	61	mm	100.000000	139	557
Frame#	Time	LPSI			L3			STRN			T10			C7			CLAV			RBAK			LBAK			LSHO			LUPA			LAEL			LAOL			LWTS			LWPS			LFRA			LHPS			LHTS			RSHO			RUPA			RAEL			RAOL			RWTS			RWPS			RFRA			RIFD			RHTS			RBHD			LFHD			RFHD			LBHD			LHIP			RHIP			RASI			LASI			LKNE			LANK			LTIP			LTOE			LMT1			LMT5			LHEE			RKNE			RTHI			RANK			RTIP			RTOE			RMT1			RMT5			RHEE			RPSI			RHPS			LTHI			LIFD			*53			*54			*55			*56			*57			*58			*59			*60			
		X1	Y1	Z1	X2	Y2	Z2	X3	Y3	Z3	X4	Y4	Z4	X5	Y5	Z5	X6	Y6	Z6	X7	Y7	Z7	X8	Y8	Z8	X9	Y9	Z9	X10	Y10	Z10	X11	Y11	Z11	X12	Y12	Z12	X13	Y13	Z13	X14	Y14	Z14	X15	Y15	Z15	X16	Y16	Z16	X17	Y17	Z17	X18	Y18	Z18	X19	Y19	Z19	X20	Y20	Z20	X21	Y21	Z21	X22	Y22	Z22	X23	Y23	Z23	X24	Y24	Z24	X25	Y25	Z25	X26	Y26	Z26	X27	Y27	Z27	X28	Y28	Z28	X29	Y29	Z29	X30	Y30	Z30	X31	Y31	Z31	X32	Y32	Z32	X33	Y33	Z33	X34	Y34	Z34	X35	Y35	Z35	X36	Y36	Z36	X37	Y37	Z37	X38	Y38	Z38	X39	Y39	Z39	X40	Y40	Z40	X41	Y41	Z41	X42	Y42	Z42	X43	Y43	Z43	X44	Y44	Z44	X45	Y45	Z45	X46	Y46	Z46	X47	Y47	Z47	X48	Y48	Z48	X49	Y49	Z49	X50	Y50	Z50	X51	Y51	Z51	X52	Y52	Z52	X53	Y53	Z53	X54	Y54	Z54	X55	Y55	Z55	X56	Y56	Z56	X57	Y57	Z57	X58	Y58	Z58	X59	Y59	Z59	X60	Y60	Z60	X61	Y61	Z61	

140	1.39	-1419.951538085938	986.1007080078125	-164.2026672363281	-1419.844482421875	1035.459594726562	-97.48417663574219	-1197.867797851562	1227.660888671875	-109.5233612060547	-1435.813110351562	1151.710815429688	-109.9252166748047	-1404.592529296875	1400.957885742188	-134.1363525390625	-1244.126098632812	1354.111206054688	-118.2992858886719	-1445.087036132812	1261.939453125	-65.31295013427734	-1409.867919921875	1359.406616210938	-234.3964691162109	-1322.4326171875	1379.952514648438	-287.2097473144531	-1334.693481445312	1255.519897460938	-349.86328125	-1312.859619140625	1051.830078125	-351.6703491210938	-1375.68408203125	1039.21044921875	-296.5054321289062	-1211.901611328125	815.5125732421875	-291.8349609375	-1249.203125	800.322265625	-349.36572265625	-1293.891723632812	947.9688720703125	-352.8656311035156	-1251.027221679688	730.0316162109375	-340.0595397949219	-1197.250122070312	736.8804931640625	-301.0348510742188	-1356.839721679688	1398.3701171875	32.60335159301758	-1369.187866210938	1335.239990234375	96.59067535400391	-1359.39892578125	1068.72314453125	137.885498046875	-1394.077270507812	1060.386474609375	49.60785675048828	-1243.790161132812	841.3764038085938	94.04880523681641	-1278.954467773438	827.0706176757812	161.6871795654297	-1332.768920898438	1001.871032714844	148.6670074462891	-1228.516723632812	667.3499145507812	112.6846237182617	-1215.412109375	739.4825439453125	110.7360305786133	-1375.628051757812	1613.316040039062	-56.73438262939453	-1195.201416015625	1628.258422851562	-160.703857421875	-1213.504272460938	1629.7900390625	-61.39135360717773	-1375.791870117188	1605.697631835938	-200.9493713378906	-1337.051147460938	923.3299560546875	-266.5322875976562	-1350.721923828125	930.8935546875	75.60731506347656	-1242.078491210938	954.873779296875	35.70038223266602	-1212.840698242188	946.0581665039062	-202.1435852050781	-1327.801147460938	464.5332336425781	-244.7365875244141	-1429.75048828125	47.65145874023438	-227.0266418457031	-1379.873046875	250.2381439208984	-247.9799041748047	-1226.105346679688	45.55070877075195	-157.6593322753906	-1295.255859375	39.27809143066406	-119.8588409423828	-1303.357055664062	43.5355110168457	-234.24462890625	-1465.371459960938	44.30242919921875	-159.5968627929688	-1346.768920898438	463.6136169433594	73.12844848632812	-1291.008178710938	720.59033203125	87.90606689453125	-1412.43212890625	54.28874206542969	63.07773208618164	-1345.557739257812	346.0865173339844	66.43142700195312	-1223.990234375	46.86827087402344	-4.748898029327393	-1283.405395507812	42.59428787231445	-40.37341690063477	-1308.105102539062	41.42730331420898	74.44535827636719	-1466.409790039062	53.08148956298828	18.55525398254395	-1423.934204101562	987.6270141601562	-35.49352264404297	-1263.940795898438	742.6906127929688	160.1963195800781	-1311.515747070312	601.990478515625	-253.7743072509766	-1207.057250976562	650.0595703125	-280.0564880371094	nan	nan	nan	nan	nan	nan	nan	nan	nan	nan	nan	nan	nan	nan	nan	nan	nan	nan	nan	nan	nan	nan	nan	nan	
141	1.4	-1419.557373046875	986.1640625	-164.6257934570312	-1419.35302734375	1035.52587890625	-97.86942291259766	-1197.148559570312	1227.6455078125	-109.9109649658203	-1435.244018554688	1151.766967773438	-110.2323989868164	-1403.911499023438	1401.00244140625	-134.4124298095703	-1243.447875976562	1354.005249023438	-118.6130752563477	-1444.453979492188	1261.978515625	-65.64835357666016	-1409.241088867188	1359.501220703125	-234.6712036132812	-1321.798828125	1379.99072265625	-287.4984741210938	-1334.100463867188	1255.5556640625	-350.130859375	-1312.39453125	1051.848876953125	-351.9341735839844	-1375.253295898438	1039.262573242188	-296.7796630859375	-1211.455322265625	815.5679931640625	-292.0812072753906	-1248.906616210938	800.2994995117188	-349.6248474121094	-1293.482543945312	947.974609375	-353.1214599609375	-1250.752197265625	730.0150756835938	-340.3040466308594	-1196.88427734375	736.8894653320312	-301.29052734375	-1356.056640625	1398.356811523438	32.339599609375	-1368.463134765625	1335.233154296875	96.31290435791016	-1358.706298828125	1068.64794921875	137.587890625	-1393.479858398438	1060.344116210938	49.30963516235352	-1243.281616210938	841.2324829101562	93.69920349121094	-1278.442138671875	827.0428466796875	161.3010864257812	-1332.110107421875	1001.794494628906	148.334228515625	-1228.227416992188	667.2047119140625	112.2346725463867	-1215.03564453125	739.31982421875	110.3026504516602	-1374.6796875	1613.3388671875	-56.95690536499023	-1194.281372070312	1628.104125976562	-161.0104522705078	-1212.564086914062	1629.683837890625	-61.68502044677734	-1374.955688476562	1605.746948242188	-201.2037506103516	-1336.699462890625	923.443603515625	-267.0492858886719	-1350.208251953125	930.7685546875	75.16561889648438	-1241.537231445312	954.7644653320312	35.24543380737305	-1212.546997070312	945.9754028320312	-202.6720733642578	-1326.8779296875	464.3580017089844	-244.9214324951172	-1429.672729492188	47.70705795288086	-226.9535064697266	-1379.286499023438	250.1216125488281	-247.95166015625	-1226.0576171875	45.51397705078125	-157.6090850830078	-1295.204345703125	39.21669006347656	-119.7950439453125	-1303.33837890625	43.57900238037109	-234.1583404541016	-1465.35546875	44.27234268188477	-159.5326232910156	-1346.475830078125	463.5241394042969	72.88878631591797	-1290.44921875	720.4525146484375	87.44457244873047	-1412.444702148438	54.26593399047852	63.12285232543945	-1345.4052734375	345.9883728027344	66.25650024414062	-1224.0224609375	46.91588973999023	-4.752368927001953	-1283.4375	42.58885192871094	-40.38742065429688	-1308.11572265625	41.42636871337891	74.44242095947266	-1466.511840820312	53.05783462524414	18.66351318359375	-1423.443115234375	987.6275634765625	-35.86895370483398	-1263.545043945312	742.6260986328125	159.9162750244141	-1310.807006835938	601.8681030273438	-254.0157928466797	-1206.961181640625	649.9154052734375	-280.2748718261719	nan	nan	nan	nan	nan	nan	nan	nan	nan	nan	nan	nan	nan	nan	nan	nan	nan	nan	nan	nan	nan	nan	nan	nan	
142	1.41	-1419.159545898438	986.22998046875	-165.0884552001953	-1418.833740234375	1035.595458984375	-98.28095245361328	-1196.393920898438	1227.637817382812	-110.3178100585938	-1434.653930664062	1151.825927734375	-110.5691452026367	-1403.211181640625	1401.049926757812	-134.7119750976562	-1242.738647460938	1353.89892578125	-118.94775390625	-1443.798217773438	1262.023193359375	-65.99454498291016	-1408.581298828125	1359.608642578125	-234.9579772949219	-1321.142211914062	1380.041259765625	-287.8085632324219	-1333.49462890625	1255.603149414062	-350.4239196777344	-1311.893798828125	1051.877197265625	-352.2073669433594	-1374.8076171875	1039.326171875	-297.0706787109375	-1211.062866210938	815.5868530273438	-292.3217468261719	-1248.58740234375	800.2811279296875	-349.8921203613281	-1293.06103515625	947.9923706054688	-353.3919982910156	-1250.462280273438	730.0081787109375	-340.5564575195312	-1196.536499023438	736.874267578125	-301.5534362792969	-1355.235229492188	1398.338134765625	32.05683135986328	-1367.682861328125	1335.217041015625	96.03164672851562	-1357.980102539062	1068.573852539062	137.2621612548828	-1392.833251953125	1060.288696289062	49.00089645385742	-1242.752563476562	841.080078125	93.33900451660156	-1277.890991210938	827.0021362304688	160.9008483886719	-1331.413940429688	1001.701049804688	147.9825134277344	-1227.895629882812	667.0504150390625	111.7758712768555	-1214.625610351562	739.1356201171875	109.8675689697266	-1373.695678710938	1613.369506835938	-57.18564605712891	-1193.326538085938	1627.95068359375	-161.3270568847656	-1211.5869140625	1629.57177734375	-61.99814224243164	-1374.095581054688	1605.811889648438	-201.47705078125	-1336.341430664062	923.5582885742188	-267.6019287109375	-1349.68017578125	930.6434936523438	74.69224548339844	-1240.971923828125	954.6444702148438	34.75507354736328	-1212.248046875	945.90478515625	-203.2579803466797	-1325.89453125	464.1695251464844	-245.0984344482422	-1429.599487304688	47.76591110229492	-226.8807220458984	-1378.67529296875	249.9942626953125	-247.9201354980469	-1226.007690429688	45.47657775878906	-157.5579986572266	-1295.163452148438	39.13612365722656	-119.719367980957	-1303.327026367188	43.62593841552734	-234.07275390625	-1465.338256835938	44.24808883666992	-159.4702453613281	-1346.193115234375	463.4526977539062	72.63429260253906	-1289.89599609375	720.322509765625	86.95471954345703	-1412.458618164062	54.24506759643555	63.15904235839844	-1345.2763671875	345.9102172851562	66.08538818359375	-1224.053466796875	46.96504211425781	-4.756160736083984	-1283.46923828125	42.58209609985352	-40.40257263183594	-1308.129028320312	41.42635726928711	74.43964385986328	-1466.611328125	53.0364990234375	18.76312255859375	-1422.933227539062	987.6376342773438	-36.28485107421875	-1263.116821289062	742.5667114257812	159.6231079101562	-1310.067016601562	601.7431640625	-254.2756652832031	-1206.80126953125	649.8265380859375	-280.5267639160156	nan	nan	nan	nan	nan	nan	nan	nan	nan	nan	nan	nan	nan	nan	nan	nan	nan	nan	nan	nan	nan	nan	nan	nan	
143	1.42	-1418.753295898438	986.2974243164062	-165.5935363769531	-1418.285766601562	1035.667236328125	-98.72315979003906	-1195.60546875	1227.6376953125	-110.7425308227539	-1434.043212890625	1151.887084960938	-110.9405059814453	-1402.487548828125	1401.099487304688	-135.0354156494141	-1241.99658203125	1353.794677734375	-119.3047714233398	-1443.11376953125	1262.07080078125	-66.35256195068359	-1407.889282226562	1359.726684570312	-235.26025390625	-1320.4619140625	1380.102905273438	-288.1430969238281	-1332.879272460938	1255.662475585938	-350.7469787597656	-1311.35986328125	1051.915161132812	-352.4920349121094	-1374.34521484375	1039.402099609375	-297.3782043457031	-1210.730712890625	815.5674438476562	-292.5567932128906	-1248.244873046875	800.26806640625	-350.1680603027344	-1292.627075195312	948.0215454101562	-353.6785888671875	-1250.156616210938	730.01171875	-340.8162231445312	-1196.26220703125	736.7903442382812	-301.8357849121094	-1354.378051757812	1398.31201171875	31.75076866149902	-1366.846435546875	1335.190063476562	95.74175262451172	-1357.219360351562	1068.501831054688	136.9043273925781	-1392.137939453125	1060.222412109375	48.68051910400391	-1242.205932617188	840.9159545898438	92.95934295654297	-1277.302612304688	826.9411010742188	160.4828491210938	-1330.6845703125	1001.595947265625	147.6077575683594	-1227.52197265625	666.8876342773438	111.3144073486328	-1214.177124023438	738.9387817382812	109.4266510009766	-1372.67822265625	1613.409790039062	-57.42395782470703	-1192.339477539062	1627.798706054688	-161.6555786132812	-1210.57080078125	1629.451538085938	-62.3270149230957	-1373.205810546875	1605.892456054688	-201.7651519775391	-1335.97412109375	923.6671752929688	-268.1905517578125	-1349.134399414062	930.5213012695312	74.18499755859375	-1240.390380859375	954.5133666992188	34.22543334960938	-1211.939208984375	945.844970703125	-203.892822265625	-1324.87646484375	463.9694519042969	-245.2729949951172	-1429.533081054688	47.82641983032227	-226.8087310791016	-1378.0458984375	249.8523864746094	-247.8854675292969	-1225.957641601562	45.44028854370117	-157.5067138671875	-1295.13720703125	39.03590774536133	-119.6319122314453	-1303.32373046875	43.67675399780273	-233.9884948730469	-1465.321166992188	44.228271484375	-159.4099884033203	-1345.919189453125	463.4031677246094	72.3699951171875	-1289.358032226562	720.2048950195312	86.44145202636719	-1412.47412109375	54.2273063659668	63.18607711791992	-1345.164794921875	345.8541564941406	65.91846466064453	-1224.08349609375	47.01545715332031	-4.760301113128662	-1283.499877929688	42.57366180419922	-40.41833114624023	-1308.144653320312	41.42769622802734	74.43736267089844	-1466.705810546875	53.01723861694336	18.85155487060547	-1422.402465820312	987.6596069335938	-36.74866104125977	-1262.6494140625	742.5065307617188	159.3050994873047	-1309.309448242188	601.6149291992188	-254.5563201904297	-1206.572998046875	649.7962036132812	-280.8166809082031	nan	nan	nan	nan	nan	nan	nan	nan	nan	nan	nan	nan	nan	nan	nan	nan	nan	nan	nan	nan	nan	nan	nan	nan	
